<svg xmlns="http://www.w3.org/2000/svg" width="9.161" height="16.755" viewBox="0 0 9.161 16.755">
  <g id="Icon_Ask" transform="translate(0.4 0.4)">
    <path id="Path_48" data-name="Path 48" d="M2843.405,165.807v2.329h-3.238a.462.462,0,0,0-.036.924h7.437a.462.462,0,0,0,.036-.924h-3.274v-2.33" transform="translate(-2839.687 -153.106)" fill="#de1020" stroke="#de1020" stroke-width="0.8"/>
    <path id="Path_49" data-name="Path 49" d="M2843.823,168.4a3.934,3.934,0,0,0,3.931-3.93v-5.221a3.93,3.93,0,0,0-7.861,0v5.221A3.934,3.934,0,0,0,2843.823,168.4Zm-3-9.152a3,3,0,1,1,6.01-.015v5.236a3,3,0,1,1-6.01.015v-5.236Z" transform="translate(-2839.643 -155.32)" fill="#de1020" stroke="#de1020" stroke-width="0.8"/>
  </g>
</svg>
